<svg xmlns="http://www.w3.org/2000/svg" viewBox="0 0 594.7 594.7"><style>.st0{fill:#7e7f7f}.st1{display:none}.st2{display:inline}.st2,.st3{fill:#fff}</style><circle cx="297.3" cy="297.3" r="297.3" id="Layer_2"/><path class="st0" d="M177.3 33.6c84.3-2.7 96.3 44 96.3 44s37.7-7.7 61 1.7c0 0 21-45.7 94.7-39.3 0 0 21.7 38.7-7.7 103.3-77.8-1.4-115.7-24.7-233.3-4.3-31.3-46.7-11-105.4-11-105.4z" id="Layer_3"/><g id="Layer_4" class="st1"><path class="st2" d="M183.7 42c4.9-.1 39.7-4.3 68.3 43.7 0 0 54-24.7 104.7 1.3 0 0 25.3-40.7 66.7-39.7 0 0 16.3 32-8 87.7 0 0 40.4 42 13.4 131.3l61.3-26s-6.3-32.7 0-43.7c0 0 1-15.3 26.7-14.7 25.7.7 24 25.3 24 25.3v24.7s18 2.7 25.3 22.3c7.3 19.7-1 34-7.3 38.3-6.3 4.3-15.5 4.1-21.7 3-9.7-1.7-19-9.7-24.7-20 0 0-133.2 68-139.3 68-21.7 0-32-3-32-3L465.7 416h4.8s8.3-16.3 31.5-14.8 22.3 22.5 22.3 22.5v8.5s-2 24.1-29.8 24.1l-.2 35.2s-2.5 19.8-19.2 19.5h-7.5s-15.1-6.2-17.8-19.8c-2.7-13.5-.5-34.5-.5-34.5L103.3 264s-12.8 16.5-26.5 16.8H62.6s-17-4.5-17.5-20.2v-16.3s-2.2-26.2 28.5-24c0 0-1.2-4.5-1.5-11.8l.2-19.2s3-22.8 20.5-22.8c0 0 4.5-1.8 13.8 0 12.5 1 18.7 12.1 20.5 23.5l.8 16.5s1.5 6.3-6.5 14.8l49.5 27.2s-12.5-77.8 22.8-115.5c-.1 0-24.1-49.5-10-91z"/><path class="st2" d="M148.6 455.7c73.2-35 148-75.2 148-75.2l-44.3-22.8s-70 32-116.8 57.5c-19.7.2-12.5-16.2-32.5-15.8H92.3s-19 5.5-19 23l.2 12.5s-2.2 19 29.5 27.5c0 0-4.5 25.8 0 34.8s12 16.2 18 16l13.5.2s19 0 20.5-20c0 0 .2-5.5 0-15.5s-9.2-20.8-6.4-22.2z"/></g><g id="Layer_4_copy"><path class="st3" d="M540.7 232s18 2.7 25.3 22.3c7.3 19.7-1 34-7.3 38.3-6.3 4.3-15.5 4.1-21.7 3-9.7-1.7-19-9.7-24.7-20 0 0-133.2 68-139.3 68-21.7 0-32-3-32-3L465.7 416h4.8s8.3-16.3 31.5-14.8 22.3 22.5 22.3 22.5v8.5s-10 26.3-29.8 24.1c5.2 16 5.5 51.5-19.5 54.8-3.5.5-7.5 0-7.5 0s-15.1-6.2-17.8-19.8c-2.7-13.5-.5-34.5-.5-34.5L103.3 264s-12.8 16.5-26.5 16.8H62.6s-17-4.5-17.5-20.2v-16.3s-2.2-26.2 28.5-24c0 0-17.1-47.1 19.2-53.8 4-1 10.8-.8 13.8 0 12.5 1 18.7 12.1 20.5 23.5l.8 16.5s1.5 6.3-6.5 14.8l49.5 27.2s-12.5-77.8 22.8-115.5c0 0-24-49.5-9.9-91 4.9-.1 39.7-4.3 68.3 43.7 0 0 54-24.7 104.7 1.3 0 0 25.3-40.7 66.7-39.7 0 0 16.3 32-8 87.7 0 0 40.4 42 13.4 131.3l61.3-26s-6.3-32.7 0-43.7c0 0 6.3-16 26.7-14.7 33.8 1.4 23.8 50.1 23.8 50.1z"/><path class="st3" d="M103.1 462.5c-.8 5.7-4.5 25.8 0 34.8s9.1 13.9 18 16c8.9 2.1 13.5.2 13.5.2s19.4-6 20.5-35.5c-1.4-15-9.3-20.9-6.5-22.2 73.2-35 148-75.2 148-75.2l-44.3-22.8s-70 32-116.8 57.5c-19.7.2-8.6-14.8-32.5-15.8 0 0-5.1-1.2-10.8 0-5.7 1.2-17 0-19 23s31.6 32.3 29.9 40z"/></g><g id="Layer_5"><circle cx="261.4" cy="166.5" r="27.9"/><circle cx="355.9" cy="166.5" r="27.9"/><path d="M408.1 213.5c-6 53.5-47.5 87.8-79.8 94.3-25.1 5.1-45.2.2-45.2.2-72.3-17-82.3-95.3-82.3-95.3l27 .2-5.2 18.5s11 49.8 65.3 65c0 0 18.8 2.8 37.8 0 0 0 54.2-17.2 63.8-60.5l-6.2-22.5h24.8z"/><circle cx="261.4" cy="166.5" r="27.9"/></g></svg>