<?xml version="1.0" encoding="UTF-8"?>
<svg xmlns="http://www.w3.org/2000/svg" viewBox="0 0 637.74 568.13">
  <defs>
    <style>
      .cls-1, .cls-2 {
        stroke-width: 0px;
      }

      .cls-1, .cls-3 {
        fill: #0891b2;
      }

      .cls-2 {
        fill: #414042;
      }

      .cls-3 {
        font-family: OfeliaText-Medium, 'Ofelia Text';
        font-size: 141.87px;
        font-weight: 500;
        stroke: #171717;
        stroke-miterlimit: 10;
        stroke-width: 4px;
      }

      .cls-4 {
        letter-spacing: 0em;
      }

      .cls-5 {
        letter-spacing: -.1em;
      }
    </style>
  </defs>
  <g id="Layer_2" data-name="Layer 2">
    <path class="cls-1" d="M200.93,65.05c-32.15,26.57-57.44,61.74-71.22,101.11-19.91,56.53-15.71,121.49,12.8,174.34,26.84,50.76,75.05,89.99,130.52,105.03,35.31,9.86,73.46,10.14,108.96,1.08,46.41-11.69,88.07-40.09,116.79-78.32,37.16-48.75,50.69-113.69,38.38-173.57-8.03-39.22-27.05-75.77-53.89-105.49-7.76-8.68-16.28-16.72-25.24-24.18,20.28,12.29,38.18,28.09,53.44,46.29,47.35,56.91,62.3,135.44,41.56,206.29-21.22,73.88-80.87,133.73-154.21,156.33-22.38,6.77-45.97,10.27-69.34,10.4-20.16-.14-40.78-2.71-60.3-7.87-13.45-3.49-27.01-8.58-39.61-14.48-101.86-48.33-155.03-162.53-123.97-271.3,14.79-51.74,49.28-97.76,95.33-125.66h0Z"/>
  </g>
  <g id="Layer_3" data-name="Layer 3">
    <g>
      <path class="cls-1" d="M176.78,243.42s37.31-149.43,36.6-186.08c-2.54-8.69-3.45-28.57-9.28-34.12s9.32.61,11.02,3.67-10.06-21.22-17.6-25.91c-7.54-4.69,24.01,8.24,28.23,23.91,4.22,15.67,4.03,12.84,5.86,33.71.87,9.94,56.17,80.29,69.18,90.56-101.23,32.74-124.01,94.27-124.01,94.27Z"/>
      <path class="cls-1" d="M482.18,243.42s-37.31-149.43-36.6-186.08c2.54-8.69,3.45-28.57,9.28-34.12,5.83-5.55-9.32.61-11.02,3.67s10.06-21.22,17.6-25.91c7.54-4.69-24.01,8.24-28.23,23.91s-4.03,12.84-5.86,33.71c-.87,9.94-56.17,80.29-69.18,90.56,101.23,32.74,124.01,94.27,124.01,94.27Z"/>
    </g>
  </g>
  <g id="Layer_4" data-name="Layer 4">
    <path class="cls-1" d="M373.25,361.93c1.56,2.31,2.14,5.14,1.5,7.85-.57,2.45-1.76,5.27-4.23,6.42-4.77,2.19-7.69-1.84-13.2.36-5.49,2.2,3.67,4.4-4.95,12.83-8.61,8.43-22.9,8.8-22.9,8.8,0,0-14.29-.37-22.89-8.8-8.61-8.43.55-10.63-4.96-12.83-5.49-2.2-8.43,1.83-13.19-.36-2.47-1.14-3.66-3.96-4.23-6.41-.62-2.67-.09-5.46,1.43-7.74,3.34-4.99,11.66-14.36,30.29-21.73,8.78-3.48,18.54-3.41,27.31.09,11.98,4.78,19.68,10.37,24.51,15.07,2.57,2.49,4.33,4.73,5.5,6.46Z"/>
  </g>
  <g id="Layer_5" data-name="Layer 5">
    <polygon class="cls-2" points="327.87 367.98 327.67 368 327.67 367.96 327.87 367.98"/>
    <polygon class="cls-2" points="328.07 367.96 328.07 368 327.87 367.98 328.07 367.96"/>
    <g>
      <path class="cls-1" d="M377,296.24s-1.59-32.95,25.89-48.13c27.48-15.18,44.84-20.56,44.84-20.56,0,0-24.02,41.49-35.37,50.18s-35.35,18.52-35.35,18.52Z"/>
      <path class="cls-1" d="M281.96,296.24s1.59-32.95-25.89-48.13c-27.48-15.18-44.84-20.56-44.84-20.56,0,0,24.02,41.49,35.37,50.18,11.35,8.69,35.35,18.52,35.35,18.52Z"/>
    </g>
  </g>
</svg>