<svg xmlns="http://www.w3.org/2000/svg" xmlns:xlink="http://www.w3.org/1999/xlink" version="1.1"
    x="0px" y="0px" viewBox="0 0 90 89.3" enable-background="new 0 0 90 90" xml:space="preserve"><path fill="#404040" d="M49.085,24.93c0,0.607-0.492,1.098-1.098,1.098h-5.975c-0.606,0-1.097-0.491-1.097-1.098l0,0  c0-0.606,0.491-1.097,1.097-1.097h5.975C48.593,23.833,49.085,24.324,49.085,24.93L49.085,24.93z"/><rect x="43.561" y="14.05" fill="#404040" width="2.879" height="9.538"/><rect x="43.98" y="7.964" fill="#404040" width="2.041" height="5.829"/><rect x="44.314" y="5.447" fill="#404040" width="1.371" height="2.294"/><rect x="44.669" y="0.622" fill="#404040" width="0.662" height="4.644"/><path fill="#404040" d="M50.456,28.831v-0.304c0-1.205-0.978-2.182-2.183-2.182h-6.546c-1.206,0-2.182,0.977-2.182,2.182v0.304  H50.456z"/><path fill="#404040" d="M39.545,29.208v0.167c0,1.206,0.977,2.183,2.182,2.183h6.546c1.205,0,2.183-0.977,2.183-2.183v-0.167H39.545  z"/><path fill="#404040" d="M51.625,88.131c-0.638-5.076-6.185-49.817-4.568-55.974h-3.828c1.292,7.318-3.601,50.937-4.173,55.974  h-8.967v1.248h29.822v-1.248H51.625z M44.743,34.112l0.2,0.003l0.199-0.003c0.285,17.335,1.289,49.954,3.095,54.019H47.89  c-0.931-2.49-1.718-11.76-2.347-27.625c-0.287-7.239-0.482-14.444-0.6-19.492c-0.118,5.048-0.313,12.253-0.6,19.492  c-0.628,15.864-1.417,25.135-2.347,27.625h-0.347C43.455,84.066,44.459,51.447,44.743,34.112z"/>
</svg>